<svg width="16" height="16" viewBox="0 0 16 16" fill="none" xmlns="http://www.w3.org/2000/svg">
<g id="Icon">
<path id="Vector" d="M2.66657 9.93267C2.17126 9.42662 1.79761 8.81448 1.57392 8.14263C1.35023 7.47078 1.28237 6.75684 1.37547 6.05488C1.46858 5.35291 1.7202 4.68134 2.1113 4.09103C2.50239 3.50072 3.02269 3.00715 3.63279 2.64771C4.24289 2.28827 4.92678 2.07238 5.63268 2.01639C6.33857 1.96041 7.04795 2.0658 7.70708 2.32458C8.36621 2.58336 8.9578 2.98875 9.43706 3.51003C9.91631 4.03132 10.2706 4.65483 10.4732 5.33334H11.6666C12.3102 5.33327 12.9369 5.54022 13.4539 5.92364C13.9709 6.30705 14.3509 6.84658 14.5377 7.46255C14.7246 8.07851 14.7084 8.73823 14.4915 9.34426C14.2746 9.95029 13.8685 10.4705 13.3332 10.828M8 8V14M8 14L5.33333 11.3333M8 14L10.6667 11.3333" stroke="white" stroke-width="1.5" stroke-linecap="round" stroke-linejoin="round"/>
</g>
</svg>
